<svg xmlns="http://www.w3.org/2000/svg" xmlns:xlink="http://www.w3.org/1999/xlink" width="50px" height="50px" viewBox="0 0 50 50" version="1.1" fill="#000000">
  <g id="surface35942">
    <path style=" stroke:none;fill-rule:nonzero;fill:#000000;fill-opacity:1;" d="M 25 8 C 21.132812 8 18 11.132812 18 15 C 18 18.867188 21.132812 22 25 22 C 28.867188 22 32 18.867188 32 15 C 32 11.132812 28.867188 8 25 8 Z M 25 22 L 20.5 22 C 18.601562 22 17 23.300781 17 25 C 17 26.699219 18.601562 28 20.5 28 L 29.5 28 C 31.398438 28 33 26.699219 33 25 C 33 23.300781 31.398438 22 29.5 22 Z M 17.9375 29.40625 C 17.542969 29.964844 17.121094 30.488281 16.6875 30.9375 C 15.234375 32.453125 13 33.78125 13 36 L 12.5 36 C 10.601562 36 9 37.300781 9 39 C 9 40.699219 10.601562 42 12.5 42 L 37.5 42 C 39.398438 42 41 40.699219 41 39 C 41 37.300781 39.398438 36 37.5 36 L 37 36 C 37 33.546875 34.59375 32.46875 32.84375 30.4375 C 32.675781 30.242188 32.375 29.847656 32.0625 29.40625 C 31.296875 29.773438 30.425781 30 29.5 30 L 20.5 30 C 19.574219 30 18.703125 29.773438 17.9375 29.40625 Z M 9.90625 43.40625 C 8.527344 45.117188 7.558594 47.0625 8.125 48.53125 C 8.335938 49.082031 8.941406 50 10.6875 50 L 39.3125 50 C 40.996094 50 41.601562 49.097656 41.8125 48.5625 C 42.386719 47.109375 41.421875 45.136719 40.0625 43.40625 C 39.292969 43.777344 38.429688 44 37.5 44 L 12.5 44 C 11.558594 44 10.679688 43.789062 9.90625 43.40625 Z M 9.90625 43.40625 "/>
  </g>
</svg>