<svg xmlns="http://www.w3.org/2000/svg" xmlns:xlink="http://www.w3.org/1999/xlink" width="50px" height="50px" viewBox="0 0 50 50" version="1.1" fill="#000000">
  <g id="surface35938">
    <path style=" stroke:none;fill-rule:nonzero;fill:#000000;fill-opacity:1;" d="M 25 0 C 22.792969 0 21 1.792969 21 4 C 21 5 21.390625 5.890625 22 6.59375 C 21.214844 7.320312 19.824219 8.773438 18.78125 10.875 C 17.980469 9.960938 17.097656 9.40625 16.40625 9.0625 C 16.773438 8.457031 17 7.757812 17 7 C 17 4.792969 15.207031 3 13 3 C 10.792969 3 9 4.792969 9 7 C 9 8.863281 10.273438 10.433594 12 10.875 C 12.113281 16.199219 15.222656 19 21 19 L 29 19 C 34.777344 19 37.886719 16.199219 38 10.875 C 39.726562 10.433594 41 8.863281 41 7 C 41 4.792969 39.207031 3 37 3 C 34.792969 3 33 4.792969 33 7 C 33 7.757812 33.226562 8.457031 33.59375 9.0625 C 32.902344 9.402344 32.019531 9.960938 31.21875 10.875 C 30.175781 8.773438 28.785156 7.320312 28 6.59375 C 28.609375 5.890625 29 5 29 4 C 29 1.792969 27.207031 0 25 0 Z M 25 2 C 26.101562 2 27 2.898438 27 4 C 27 5.101562 26.101562 6 25 6 C 23.898438 6 23 5.101562 23 4 C 23 2.898438 23.898438 2 25 2 Z M 13 5 C 14.101562 5 15 5.898438 15 7 C 15 8.101562 14.101562 9 13 9 C 11.898438 9 11 8.101562 11 7 C 11 5.898438 11.898438 5 13 5 Z M 37 5 C 38.101562 5 39 5.898438 39 7 C 39 8.101562 38.101562 9 37 9 C 35.898438 9 35 8.101562 35 7 C 35 5.898438 35.898438 5 37 5 Z M 20.84375 21 C 20.835938 21.0625 20.851562 21.125 20.84375 21.1875 C 20.8125 21.460938 20.757812 21.730469 20.71875 22 L 17.5 22 C 15.601562 22 14 23.300781 14 25 C 14 26.699219 15.601562 28 17.5 28 L 32.5 28 C 34.398438 28 36 26.699219 36 25 C 36 23.300781 34.398438 22 32.5 22 L 29.3125 22 C 29.25 21.703125 29.183594 21.410156 29.15625 21.15625 C 29.148438 21.097656 29.164062 21.058594 29.15625 21 C 29.105469 21 29.050781 21 29 21 L 21 21 C 20.949219 21 20.894531 21 20.84375 21 Z M 16.96875 29.96875 C 16.582031 30.359375 16.210938 30.722656 15.84375 31.0625 C 14.382812 32.410156 13 33.691406 13 36 L 12.5 36 C 10.601562 36 9 37.300781 9 39 C 9 40.699219 10.601562 42 12.5 42 L 37.5 42 C 39.398438 42 41 40.699219 41 39 C 41 37.300781 39.398438 36 37.5 36 L 37 36 C 37 33.691406 35.617188 32.410156 34.15625 31.0625 C 33.789062 30.722656 33.386719 30.359375 33 29.96875 C 32.832031 29.984375 32.675781 30 32.5 30 L 17.5 30 C 17.324219 30 17.140625 29.980469 16.96875 29.96875 Z M 9.90625 43.40625 C 8.527344 45.117188 7.558594 47.0625 8.125 48.53125 C 8.335938 49.082031 8.941406 50 10.6875 50 L 39.3125 50 C 40.996094 50 41.601562 49.097656 41.8125 48.5625 C 42.386719 47.109375 41.421875 45.136719 40.0625 43.40625 C 39.292969 43.777344 38.429688 44 37.5 44 L 12.5 44 C 11.558594 44 10.679688 43.789062 9.90625 43.40625 Z M 9.90625 43.40625 "/>
  </g>
</svg>