<svg xmlns="http://www.w3.org/2000/svg" xmlns:xlink="http://www.w3.org/1999/xlink" width="50px" height="50px" viewBox="0 0 50 50" version="1.1" fill="#000000">
  <g id="surface36491">
    <path style=" stroke:none;fill-rule:nonzero;fill:#000000;fill-opacity:1;" d="M 25 0 C 22.792969 0 21 1.792969 21 4 C 21 4.613281 21.160156 5.199219 21.40625 5.71875 C 21.296875 5.808594 21.183594 5.902344 21.0625 6.03125 C 18.992188 8.082031 15 12.535156 15 16.40625 C 15 16.855469 15.046875 17.289062 15.09375 17.71875 C 15.105469 17.804688 15.113281 17.882812 15.125 17.96875 C 15.402344 20.007812 16.214844 21.804688 17.59375 23.3125 C 17.214844 23.789062 17 24.363281 17 25 C 17 26.699219 18.601562 28 20.5 28 L 29.5 28 C 31.398438 28 33 26.699219 33 25 C 33 24.382812 32.796875 23.8125 32.4375 23.34375 C 32.472656 23.316406 32.5 23.3125 32.53125 23.28125 C 33.804688 21.90625 34.601562 20.097656 34.875 18.0625 C 34.886719 17.980469 34.898438 17.894531 34.90625 17.8125 C 34.957031 17.386719 35 16.941406 35 16.5 C 35 12.953125 31.757812 8.890625 28.9375 6.03125 C 28.8125 5.90625 28.707031 5.800781 28.59375 5.71875 C 28.847656 5.195312 29 4.621094 29 4 C 29 1.792969 27.207031 0 25 0 Z M 25 2 C 26.101562 2 27 2.898438 27 4 C 27 5.101562 26.101562 6 25 6 C 23.898438 6 23 5.101562 23 4 C 23 2.898438 23.898438 2 25 2 Z M 18.125 29.5 C 17.34375 30.644531 16.476562 31.449219 15.6875 32.1875 C 15.0625 32.769531 14.460938 33.347656 14.03125 34 C 13.648438 34.574219 13.40625 35.21875 13.40625 36 L 12.5 36 C 10.601562 36 9 37.300781 9 39 C 9 40.699219 10.601562 42 12.5 42 L 37.5 42 C 39.398438 42 41 40.699219 41 39 C 41 37.300781 39.398438 36 37.5 36 L 36.59375 36 C 36.59375 35.214844 36.351562 34.574219 35.96875 34 C 35.53125 33.34375 34.914062 32.773438 34.28125 32.1875 C 33.484375 31.453125 32.621094 30.652344 31.84375 29.53125 C 31.128906 29.835938 30.339844 30 29.5 30 L 20.5 30 C 19.644531 30 18.847656 29.816406 18.125 29.5 Z M 9.90625 43.40625 C 8.527344 45.117188 7.558594 47.0625 8.125 48.53125 C 8.335938 49.082031 8.941406 50 10.6875 50 L 39.3125 50 C 40.996094 50 41.601562 49.097656 41.8125 48.5625 C 42.386719 47.109375 41.421875 45.136719 40.0625 43.40625 C 39.292969 43.777344 38.429688 44 37.5 44 L 12.5 44 C 11.558594 44 10.679688 43.789062 9.90625 43.40625 Z M 9.90625 43.40625 "/>
  </g>
</svg>