<svg xmlns="http://www.w3.org/2000/svg" xmlns:xlink="http://www.w3.org/1999/xlink" width="50px" height="50px" viewBox="0 0 50 50" version="1.1" fill="#000000">
  <g id="surface36426">
    <path style=" stroke:none;fill-rule:nonzero;fill:#000000;fill-opacity:1;" d="M 15 3 C 13.347656 3 12 4.347656 12 6 L 12 16 C 12 17.652344 13.347656 19 15 19 L 35 19 C 36.652344 19 38 17.652344 38 16 L 38 6 C 38 4.347656 36.652344 3 35 3 L 34 3 C 33.445312 3 33 3.449219 33 4 L 33 8 C 32.988281 8.460938 33 10 31 10 C 29 10 29.011719 8.449219 29 8 L 29 4 C 29 3.449219 28.554688 3 28 3 L 22 3 C 21.449219 3 21 3.449219 21 4 L 21 8 C 20.988281 8.460938 21 10 19 10 C 17 10 17.011719 8.449219 17 8 L 17 4 C 17 3.449219 16.550781 3 16 3 Z M 20 21 L 20 22.03125 C 18.328125 22.238281 17 23.453125 17 25 C 17 26.699219 18.601562 28 20.5 28 L 29.5 28 C 31.398438 28 33 26.699219 33 25 C 33 23.453125 31.671875 22.238281 30 22.03125 L 30 21 Z M 17.75 30 C 17.429688 30.496094 16.847656 31.058594 16.46875 31.40625 C 15.484375 32.5 13.40625 33.691406 13.40625 36 L 12.5 36 C 10.601562 36 9 37.300781 9 39 C 9 40.699219 10.601562 42 12.5 42 L 37.5 42 C 39.398438 42 41 40.699219 41 39 C 41 37.300781 39.398438 36 37.5 36 L 36.59375 36 C 36.59375 33.691406 34.25 32.34375 33.3125 31.21875 C 32.945312 30.878906 32.632812 30.472656 32.21875 30 C 32.046875 30.015625 31.863281 30 31.6875 30 L 18.25 30 C 18.074219 30 17.921875 30.011719 17.75 30 Z M 9.90625 43.40625 C 8.527344 45.117188 7.558594 47.0625 8.125 48.53125 C 8.335938 49.082031 8.941406 50 10.6875 50 L 39.3125 50 C 40.996094 50 41.601562 49.097656 41.8125 48.5625 C 42.386719 47.109375 41.421875 45.136719 40.0625 43.40625 C 39.292969 43.777344 38.429688 44 37.5 44 L 12.5 44 C 11.558594 44 10.679688 43.789062 9.90625 43.40625 Z M 9.90625 43.40625 "/>
  </g>
</svg>