<!-- Generator: Adobe Illustrator 15.0.0, SVG Export Plug-In . SVG Version: 6.00 Build 0)  -->
<svg version="1.1" id="Layer_1" xmlns="http://www.w3.org/2000/svg" xmlns:xlink="http://www.w3.org/1999/xlink" x="0px" y="0px"
	 width="50px" height="50px" viewBox="0 0 50 50" enable-background="new 0 0 50 50" xml:space="preserve">
<polygon fill="#FFFFFF" points="11.417,7.167 39,7.167 36.834,13.083 32.084,16.75 17.833,16.75 11.917,11.083 "/>
<polygon fill="#FFFFFF" points="22.365,17.583 22.365,21.75 28.167,21.75 27.75,17.583 "/>
<polygon fill="#FFFFFF" points="15.75,22.833 15.75,27 34.584,27 34.584,22.5 "/>
<polygon fill="#FFFFFF" points="19.917,28.417 13.75,35.834 36.334,35.834 30.584,28.417 "/>
<polyline fill="#FFFFFF" points="10.667,36.834 10.667,41.417 39.334,41.417 39,36.834 11.083,36.834 "/>
<polygon fill="#FFFFFF" points="12.25,42.334 9.167,48.5 40.667,48.5 38.25,42.334 "/>
<polygon fill="#FFFFFF" points="22.365,0.997 22.917,5.75 26.75,6.5 28.167,2.917 "/>
<g id="surface34306">
	<path d="M25,0c-2.199,0-4,1.801-4,4c0,0.746,0.23,1.43,0.594,2.031h-9.281c-0.836,0-1.68,0.422-2.031,1.125
		s-0.285,1.422-0.094,2.156c0.379,1.461,1.375,3.082,2.688,4.531v0.031l1.5,1.656c1.34,1.469,2.922,2.438,4.438,2.438H21
		c0,0.012,0,0.02,0,0.031c0,1.098-0.035,2.09-0.125,3H18.5c-2.398,0-4.5,1.715-4.5,4c0,2.094,1.77,3.711,3.906,3.969
		c-0.867,1.059-1.797,1.836-2.656,2.656c-0.953,0.906-1.832,1.98-2.125,3.406C10.895,35.141,9,36.816,9,39
		c0,1.379,0.758,2.566,1.875,3.281c-1.289,1.352-2.277,2.773-2.688,4.125c-0.25,0.816-0.305,1.703,0.156,2.469S9.727,50,10.719,50
		h28.563c0.992,0,1.945-0.359,2.406-1.125s0.375-1.652,0.125-2.469c-0.414-1.352-1.395-2.773-2.688-4.125
		C40.242,41.566,41,40.379,41,39c0-2.184-1.895-3.859-4.125-3.969c-0.293-1.422-1.176-2.5-2.125-3.406
		c-0.859-0.816-1.789-1.598-2.656-2.656C34.23,28.711,36,27.094,36,25c0-2.289-2.105-4-4.5-4h-2.344C29.063,20.09,29,19.105,29,18
		c0-0.012,0-0.02,0-0.031h2.188c1.516,0,3.102-0.965,4.438-2.438l1.5-1.656c1.32-1.453,2.313-3.098,2.688-4.563
		C40,8.578,40.074,7.855,39.719,7.156s-1.195-1.125-2.031-1.125h-9.281C28.77,5.43,29,4.746,29,4C29,1.801,27.199,0,25,0z M25,2
		c1.117,0,2,0.883,2,2s-0.883,2-2,2s-2-0.883-2-2S23.883,2,25,2z M12.313,7.969h12.406C24.813,7.977,24.906,8,25,8
		s0.188-0.023,0.281-0.031h12.406c0.371,0,0.293,0.023,0.313,0.063s0.059,0.332-0.063,0.813c-0.246,0.961-1.07,2.453-2.219,3.719
		l-1.531,1.656c-1.051,1.156-2.555,1.813-3,1.813H18.813c-0.445,0-1.945-0.656-3-1.813l-1.5-1.656c-1.152-1.266-2-2.758-2.25-3.719
		C11.938,8.363,11.98,8.07,12,8.031S11.941,7.969,12.313,7.969z M23,17.969h4c0,0.012,0,0.02,0,0.031c0,1.086,0.039,2.07,0.125,3
		h-4.281C22.934,20.074,23,19.082,23,18C23,17.988,23,17.98,23,17.969z M18.5,23h13c1.469,0,2.5,0.977,2.5,2s-1.031,2-2.5,2h-13
		c-1.469,0-2.5-0.977-2.5-2S17.031,23,18.5,23z M20.344,29h9.313c1.246,1.922,2.691,3.113,3.719,4.094
		c0.742,0.703,1.234,1.227,1.469,1.906H15.156c0.234-0.676,0.727-1.199,1.469-1.906C17.656,32.113,19.098,30.93,20.344,29z
		 M13.344,37h23.313C38.012,37,39,37.945,39,39s-0.992,2-2.344,2H13.344C11.992,41,11,40.055,11,39S11.992,37,13.344,37z M13,42.969
		C13.117,42.977,13.227,43,13.344,43h23.313c0.117,0,0.227-0.023,0.344-0.031c1.488,1.391,2.594,3.012,2.906,4.031
		c0.16,0.516,0.09,0.797,0.063,0.844S39.867,48,39.281,48H10.719c-0.586,0-0.66-0.109-0.688-0.156S9.938,47.516,10.094,47
		C10.402,45.98,11.516,44.359,13,42.969z"/>
</g>
</svg>
