<svg version="1.1" id="Layer_1" xmlns="http://www.w3.org/2000/svg" xmlns:xlink="http://www.w3.org/1999/xlink" x="0px" y="0px"
	 width="50px" height="50px" viewBox="0 0 50 50" enable-background="new 0 0 50 50" xml:space="preserve">
<polygon fill="#FFFFFF" points="12.5,41.334 9.25,47.25 41,47.667 37.917,41.334 "/>
<polygon fill="#FFFFFF" points="11.167,35.084 39.334,35.584 39.334,40.667 10.833,40.667 "/>
<polyline fill="#FFFFFF" points="25.75,2.5 21.583,5.833 21,8.667 14.583,14.25 13.25,23.167 16.25,34.75 34.917,35.084 
	32.834,28.5 28.25,22.417 28.167,20.667 31.667,19.167 34.917,21 38.917,17.583 33.334,10.5 29.834,8 26.084,6.917 26.667,2.5 
	26.084,2.5 26.084,2.167 "/>
<g id="surface35620">
	<path d="M26.625,1.055c-0.043,0.004-0.09,0.008-0.133,0.016c-2.766,0.465-4.441,2.063-5.348,3.609
		c-0.453,0.773-0.734,1.531-0.922,2.148c-0.152,0.504-0.227,0.813-0.273,1c-1.418,0.91-3.047,2.285-4.309,3.547
		c-3.633,3.633-4.906,9.52-2.746,15.203C13.621,28.488,15,30.789,15,34h-1.668C11.004,34,9,35.742,9,38
		c0,0.145,0.031,0.285,0.094,0.418c0.137,1.188,0.824,2.195,1.793,2.836c-1.297,1.363-2.281,2.805-2.695,4.164
		c-0.25,0.816-0.32,1.684,0.137,2.453C8.789,48.637,9.723,49,10.715,49h28.574c0.992,0,1.926-0.367,2.383-1.133
		c0.461-0.766,0.383-1.641,0.133-2.457c-0.414-1.348-1.391-2.777-2.68-4.129C40.242,40.566,41,39.383,41,38
		c0-0.145-0.031-0.285-0.094-0.418C40.668,35.543,38.84,34,36.668,34H36c0-3.852-2.32-7.121-4.52-9.543
		c-1.043-1.141-2.043-2.063-2.824-2.789c0.652-0.219,1.176-0.582,1.594-0.902c0.543-0.422,1.012-0.625,0.984-0.625
		c0.801,0,0.832,0.168,1.234,0.625c0.203,0.23,0.457,0.547,0.867,0.828s0.984,0.473,1.621,0.473c0.992,0,1.746-0.578,2.199-1.109
		s0.75-1.07,0.883-1.23c-0.008,0.012,0.074-0.059,0.273-0.152c0.207-0.098,0.508-0.203,0.848-0.449
		c0.34-0.242,0.723-0.723,0.797-1.289s-0.074-1.117-0.363-1.746c-0.574-1.266-2.664-5.309-6.887-7.055
		c-0.23-0.098-0.246-0.133-0.371-0.332s-0.285-0.59-0.652-1.023c-0.371-0.43-0.949-0.828-1.742-1.07
		c-0.609-0.188-1.531-0.242-2.492-0.285c-0.012-0.051-0.016-0.031-0.023-0.09c-0.043-0.309-0.066-0.727-0.063-1.18
		c0.008-0.91,0.113-1.984,0.277-2.805c0.059-0.297-0.023-0.605-0.219-0.84C27.223,1.176,26.934,1.047,26.625,1.055z M25.508,3.57
		c-0.047,0.504-0.141,0.984-0.145,1.469c-0.004,0.527,0.02,1.023,0.082,1.473s0.129,0.848,0.406,1.27
		c0.184,0.285,0.5,0.457,0.84,0.457c1.316,0,2.16,0.125,2.668,0.281c0.504,0.156,0.664,0.301,0.801,0.457
		c0.137,0.16,0.242,0.406,0.477,0.781c0.234,0.379,0.672,0.863,1.305,1.129c3.398,1.402,5.371,5.02,5.836,6.031
		c0.184,0.406,0.18,0.57,0.18,0.602c-0.07,0.043-0.23,0.121-0.488,0.238c-0.273,0.129-0.648,0.301-0.973,0.695
		c-0.371,0.453-0.598,0.898-0.859,1.203c-0.262,0.309-0.41,0.41-0.68,0.41c-0.293,0-0.379-0.047-0.496-0.129
		c-0.117-0.078-0.27-0.242-0.492-0.496c-0.445-0.504-1.348-1.301-2.734-1.301c-1.047,0-1.652,0.617-2.203,1.035
		c-0.551,0.422-1.039,0.684-1.121,0.691c-0.262,0.02-0.359-0.043-0.613-0.18c-0.063-0.035-0.129-0.078-0.266-0.129
		c-0.133-0.055-0.383-0.172-0.785-0.039c-0.406,0.137-0.648,0.543-0.711,0.758c-0.059,0.211-0.055,0.344-0.055,0.48
		c0,0.453,0.156,0.625,0.27,0.785s0.23,0.297,0.363,0.441c0.273,0.289,0.613,0.605,1.016,0.98c0.801,0.75,1.84,1.711,2.871,2.844
		c2.059,2.258,4,5.164,4,8.191H17c0-3.789-1.641-6.563-2.234-8.133c-1.906-5.012-0.746-10.043,2.289-13.082
		c1.285-1.285,3.117-2.852,4.285-3.543c0.203-0.117,0.355-0.309,0.434-0.531c0.137-0.387,0.199-0.773,0.363-1.297
		c0.16-0.523,0.391-1.133,0.734-1.723C23.383,4.82,24.277,4.094,25.508,3.57z M13.332,36h23.336C38.02,36,39,36.945,39,38
		s-0.98,2-2.332,2H13.332C11.98,40,11,39.055,11,38S11.98,36,13.332,36z M36.996,41.969c1.488,1.391,2.582,3.012,2.895,4.031
		c0.16,0.516,0.094,0.793,0.066,0.84S39.875,47,39.289,47H10.715c-0.586,0-0.641-0.113-0.668-0.16
		c-0.031-0.051-0.098-0.324,0.059-0.84c0.309-1.02,1.398-2.637,2.883-4.031C13.102,41.98,13.215,42,13.332,42h23.336
		C36.781,42,36.887,41.977,36.996,41.969z"/>
</g>
<path fill="#FFFFFF" d="M18.667,21.25"/>
</svg>
