<svg version="1.1" id="Layer_1" xmlns="http://www.w3.org/2000/svg" xmlns:xlink="http://www.w3.org/1999/xlink" x="0px" y="0px"
	 width="50px" height="50px" viewBox="0 0 50 50" enable-background="new 0 0 50 50" xml:space="preserve">
<rect x="10.75" y="4.5" fill="#FFFFFF" width="4.667" height="4.75"/>
<polygon fill="#FFFFFF" points="34.584,4.917 34.584,9.25 39.417,9.25 39.75,4.917 "/>
<rect x="22.583" y="1.583" fill="#FFFFFF" width="4.75" height="4.75"/>
<polyline fill="#FFFFFF" points="14.417,15.667 21.083,18 33.917,16.833 36.667,13.667 37.167,10.25 34.584,9.792 31.25,11.833 
	27.334,7.083 23.083,7.083 19.333,12.5 15.083,9.792 13.083,10.75 "/>
<polygon fill="#FFFFFF" points="22.25,18.417 22.25,21.417 28.25,21.417 28.25,18 "/>
<polygon fill="#FFFFFF" points="16,22.417 15.417,26.917 34.584,27.334 34.584,22.75 "/>
<polygon fill="#FFFFFF" points="19.833,28.25 13.833,35.584 36.084,35.584 30.417,28.25 "/>
<rect x="10.75" y="36.417" fill="#FFFFFF" width="28.584" height="5"/>
<polygon fill="#FFFFFF" points="12.417,42.25 9.167,48.334 40.917,48.334 37.667,42.25 "/>
<g id="surface35224">
	<path d="M25,0c-2.199,0-4,1.801-4,4c0,1.012,0.402,1.918,1.031,2.625c-0.762,0.742-2.152,2.227-3.219,4.406
		C18,10.086,17.078,9.5,16.375,9.125C16.77,8.508,17,7.781,17,7c0-2.199-1.801-4-4-4S9,4.801,9,7c0,1.852,1.281,3.398,3,3.844
		c0.047,2.48,0.746,4.57,2.25,6c1.555,1.477,3.84,2.152,6.719,2.156c-0.02,0.707-0.031,1.379-0.094,2H18.5c-2.398,0-4.5,1.715-4.5,4
		c0,2.094,1.77,3.711,3.906,3.969c-0.867,1.059-1.797,1.836-2.656,2.656c-0.953,0.906-1.832,1.98-2.125,3.406
		C10.895,35.141,9,36.816,9,39c0,1.379,0.758,2.566,1.875,3.281c-1.289,1.352-2.277,2.773-2.688,4.125
		c-0.25,0.816-0.305,1.703,0.156,2.469S9.727,50,10.719,50h28.563c0.992,0,1.945-0.359,2.406-1.125s0.375-1.652,0.125-2.469
		c-0.414-1.352-1.395-2.773-2.688-4.125C40.242,41.566,41,40.379,41,39c0-2.184-1.895-3.859-4.125-3.969
		c-0.293-1.422-1.176-2.5-2.125-3.406c-0.859-0.816-1.789-1.598-2.656-2.656C34.23,28.711,36,27.094,36,25c0-2.289-2.105-4-4.5-4
		h-2.344c-0.063-0.621-0.105-1.293-0.125-2c2.879-0.004,5.164-0.68,6.719-2.156c1.504-1.43,2.203-3.52,2.25-6
		c1.719-0.445,3-1.992,3-3.844c0-2.199-1.801-4-4-4s-4,1.801-4,4c0,0.781,0.23,1.508,0.625,2.125
		C32.922,9.5,32,10.086,31.188,11.031c-1.066-2.18-2.457-3.664-3.219-4.406C28.598,5.918,29,5.012,29,4C29,1.801,27.199,0,25,0z
		 M25,2c1.117,0,2,0.883,2,2s-0.883,2-2,2s-2-0.883-2-2S23.883,2,25,2z M13,5c1.117,0,2,0.883,2,2s-0.883,2-2,2s-2-0.883-2-2
		S11.883,5,13,5z M37,5c1.117,0,2,0.883,2,2s-0.883,2-2,2s-2-0.883-2-2S35.883,5,37,5z M23.688,7.75C24.098,7.895,24.543,8,25,8
		s0.902-0.105,1.313-0.25c0.324,0.262,2.672,2.25,3.75,5.563c0.129,0.383,0.477,0.652,0.879,0.68
		c0.406,0.027,0.785-0.191,0.965-0.555c1.172-2.387,3.313-2.875,3.313-2.875c0.25,0.125,0.504,0.211,0.781,0.281
		c-0.047,2.098-0.598,3.555-1.625,4.531C33.301,16.395,31.578,17,29,17h-0.781c-0.102-0.027-0.207-0.039-0.313-0.031
		c-0.031,0.008-0.063,0.02-0.094,0.031h-5.594c-0.102-0.027-0.207-0.039-0.313-0.031c-0.031,0.008-0.063,0.02-0.094,0.031H21
		c-2.578,0-4.301-0.605-5.375-1.625c-1.027-0.977-1.578-2.434-1.625-4.531c0.277-0.07,0.531-0.156,0.781-0.281
		c0,0,2.141,0.488,3.313,2.875c0.18,0.363,0.559,0.582,0.965,0.555c0.402-0.027,0.75-0.297,0.879-0.68
		C21.016,10,23.363,8.012,23.688,7.75z M22.969,19h4.063c0.016,0.699,0.035,1.371,0.094,2h-4.281
		C22.906,20.371,22.945,19.699,22.969,19z M18.5,23h13c1.469,0,2.5,0.977,2.5,2s-1.031,2-2.5,2h-13c-1.469,0-2.5-0.977-2.5-2
		S17.031,23,18.5,23z M20.344,29h9.313c1.246,1.922,2.691,3.113,3.719,4.094c0.742,0.703,1.234,1.227,1.469,1.906H15.156
		c0.234-0.676,0.727-1.199,1.469-1.906C17.656,32.113,19.098,30.93,20.344,29z M13.344,37h23.313C38.012,37,39,37.945,39,39
		s-0.992,2-2.344,2H13.344C11.992,41,11,40.055,11,39S11.992,37,13.344,37z M13,42.969C13.117,42.977,13.227,43,13.344,43h23.313
		c0.117,0,0.227-0.023,0.344-0.031c1.488,1.391,2.594,3.012,2.906,4.031c0.16,0.516,0.09,0.797,0.063,0.844S39.867,48,39.281,48
		H10.719c-0.586,0-0.66-0.109-0.688-0.156S9.938,47.516,10.094,47C10.402,45.98,11.516,44.359,13,42.969z"/>
</g>
</svg>
