<svg version="1.1" id="Layer_1" xmlns="http://www.w3.org/2000/svg" xmlns:xlink="http://www.w3.org/1999/xlink" x="0px" y="0px"
	 width="50px" height="50px" viewBox="0 0 50 50" enable-background="new 0 0 50 50" xml:space="preserve">
<rect x="22.75" y="1.75" fill="#FFFFFF" stroke="#FFFFFF" stroke-miterlimit="10" width="4.75" height="4.583"/>
<polygon fill="#FFFFFF" points="22.167,6.333 16.167,15.333 18.667,22.583 32.084,22.583 34.25,15.833 27.5,6.333 "/>
<g id="surface33786">
	<polygon fill="#FFFFFF" points="31.667,22.583 18.917,22.583 18.583,27 31,27.5 	"/>
	<polyline fill="#FFFFFF" points="20.167,28.167 14.833,35.417 35.417,35.417 30.084,28.167 	"/>
	<polygon fill="#FFFFFF" points="12.417,35.917 10.25,39.334 12.417,41.834 38.5,41.417 40.167,38.5 37.75,36.5 	"/>
	<polygon fill="#FFFFFF" points="12.583,42.25 9,48.334 40.834,48.334 37.75,42.25 12.917,42.25 	"/>
	<path d="M25,2c1.117,0,2,0.883,2,2s-0.883,2-2,2s-2-0.883-2-2S23.883,2,25,2z M22.688,7.219C23.348,7.699,24.129,8,25,8
		c0.863,0,1.656-0.277,2.313-0.75c1.262,1.262,2.734,2.867,3.844,4.531C32.277,13.461,33,15.195,33,16.5
		c0,2.293-0.781,4.078-1.844,5.281C30.395,21.289,29.465,21,28.5,21h-7c-0.941,0-1.844,0.281-2.594,0.75
		C17.777,20.441,17,18.801,17,16.406c0-1.305,0.746-3.043,1.875-4.719C19.977,10.051,21.398,8.469,22.688,7.219z M21.5,23h7
		c1.445,0,2.5,0.926,2.5,2s-1.055,2-2.5,2h-7c-1.445,0-2.5-0.926-2.5-2S20.055,23,21.5,23z M20.75,28.938
		C20.996,28.977,21.246,29,21.5,29h7c0.242,0,0.484-0.027,0.719-0.063c1.121,2.285,2.586,3.668,3.688,4.688
		c0.57,0.527,1.035,0.969,1.313,1.344c0.012,0.016,0.02,0.02,0.031,0.031h-18.5c0.012-0.012,0.02-0.016,0.031-0.031
		c0.277-0.375,0.742-0.813,1.313-1.344C18.184,32.605,19.637,31.215,20.75,28.938z M13.313,37h23.281C38.039,37,39,37.887,39,39
		s-0.992,2-2.313,2H13.313C11.992,41,11,40.113,11,39S11.992,37,13.313,37z M13.031,42.969C13.125,42.977,13.219,43,13.313,43
		h23.375c0.086,0,0.164-0.027,0.25-0.031c1.492,1.406,2.586,3.039,2.906,4.063c0.16,0.516,0.117,0.773,0.094,0.813
		S39.883,48,39.313,48H10.688c-0.602,0-0.66-0.113-0.688-0.156s-0.098-0.301,0.063-0.813C10.379,46.02,11.496,44.375,13.031,42.969z
		 M25,0c-2.199,0-4,1.801-4,4c0,0.605,0.16,1.172,0.406,1.688c-1.387,1.336-2.941,3.059-4.188,4.906S15,14.414,15,16.406
		c0,2.93,1.043,5.145,2.5,6.781C17.188,23.727,17,24.328,17,25c0,1.383,0.766,2.512,1.875,3.219
		c-0.938,1.848-2.105,2.957-3.156,3.938c-0.566,0.531-1.086,1.023-1.531,1.625c-0.262,0.355-0.484,0.766-0.625,1.219h-0.25
		C11.031,35,9,36.711,9,39c0,1.406,0.754,2.605,1.875,3.313c-1.309,1.352-2.301,2.777-2.719,4.125
		c-0.254,0.816-0.316,1.672,0.156,2.438S9.691,50,10.688,50h28.625c0.98,0,1.895-0.359,2.344-1.125s0.379-1.629,0.125-2.438
		c-0.418-1.34-1.406-2.77-2.688-4.125C40.227,41.605,41,40.414,41,39c0-2.289-2.051-4-4.406-4h-0.156
		c-0.141-0.453-0.359-0.863-0.625-1.219c-0.445-0.602-0.965-1.102-1.531-1.625c-1.066-0.984-2.246-2.066-3.188-3.906
		C32.223,27.547,33,26.398,33,25c0-0.637-0.188-1.199-0.469-1.719C34.016,21.684,35,19.332,35,16.5c0-1.992-0.957-3.965-2.188-5.813
		s-2.762-3.574-4.094-4.906c-0.027-0.035-0.059-0.066-0.094-0.094C28.863,5.176,29,4.602,29,4C29,1.801,27.199,0,25,0z"/>
</g>
</svg>
