<svg version="1.1" id="Layer_1" xmlns="http://www.w3.org/2000/svg" xmlns:xlink="http://www.w3.org/1999/xlink" x="0px" y="0px"
	 width="50px" height="50px" viewBox="0 0 50 50" enable-background="new 0 0 50 50" xml:space="preserve">
<polygon fill="#FFFFFF" points="34,5 34,8 31,11 28,8 28,5 22,5 22,8 19,11 16,8 16,5 14.548,4.482 13.548,5.482 13.19,16.675 
	14.19,17.675 35.437,17.563 36.437,16.563 36.92,5.616 35.92,4.616 "/>
<rect x="22" y="19" fill="#FFFFFF" width="6" height="2"/>
<rect x="18.875" y="22.898" fill="#FFFFFF" width="12.517" height="4.172"/>
<polygon fill="#FFFFFF" points="20.423,28.35 15.107,35.146 10.867,37.367 10.867,40.934 11.944,42.481 8.983,48.134 40.813,48.134 
	37.718,42.01 40.006,39.116 37.247,36.021 34.892,35.28 29.44,28.013 "/>
<g id="surface28227">
	<path d="M15,3c-1.645,0-3,1.355-3,3v10c0,1.645,1.355,3,3,3h5v2.25c-1.707,0.543-3,1.961-3,3.75c0,1.363,0.766,2.504,1.875,3.219
		c-0.934,1.859-2.121,2.941-3.188,3.938c-0.563,0.527-1.09,1.023-1.531,1.625c-0.262,0.355-0.484,0.762-0.625,1.219h-0.188
		C11.016,35,9,36.742,9,39c0,1.379,0.758,2.566,1.875,3.281c-1.289,1.352-2.277,2.773-2.688,4.125
		c-0.25,0.816-0.305,1.703,0.156,2.469S9.727,50,10.719,50h28.563c0.992,0,1.945-0.359,2.406-1.125s0.375-1.652,0.125-2.469
		c-0.414-1.352-1.395-2.773-2.688-4.125C40.242,41.566,41,40.379,41,39c0-2.258-2.016-4-4.344-4h-0.188
		c-0.141-0.453-0.363-0.863-0.625-1.219c-0.445-0.602-0.996-1.094-1.563-1.625c-1.059-0.988-2.227-2.094-3.156-3.938
		C32.234,27.504,33,26.363,33,25c0-1.789-1.293-3.207-3-3.75V19h5c1.645,0,3-1.355,3-3V6c0-1.645-1.355-3-3-3h-2
		c-0.551,0-1,0.449-1,1v4c0,0-0.027,0.301-0.156,0.563S31.668,9,31,9s-0.715-0.176-0.844-0.438S30,8,30,8V4c0-0.551-0.449-1-1-1h-8
		c-0.551,0-1,0.449-1,1v4c0,0-0.027,0.301-0.156,0.563S19.668,9,19,9s-0.715-0.176-0.844-0.438S18,8,18,8V4c0-0.551-0.449-1-1-1H15z
		 M15,5h1v3c0,0-0.027,0.699,0.344,1.438S17.668,11,19,11s2.285-0.824,2.656-1.563S22,8,22,8V5h6v3c0,0-0.027,0.699,0.344,1.438
		S29.668,11,31,11s2.285-0.824,2.656-1.563S34,8,34,8V5h1c0.559,0,1,0.441,1,1v10c0,0.559-0.441,1-1,1h-5.813
		c-0.133-0.027-0.273-0.027-0.406,0h-7.594c-0.133-0.027-0.273-0.027-0.406,0H15c-0.559,0-1-0.441-1-1V6C14,5.441,14.441,5,15,5z
		 M22,19h6v2h-6V19z M21.5,23h7c1.469,0,2.5,0.977,2.5,2s-1.031,2-2.5,2h-7c-1.469,0-2.5-0.977-2.5-2S20.031,23,21.5,23z
		 M20.719,28.938C20.977,28.98,21.23,29,21.5,29h7c0.27,0,0.523-0.02,0.781-0.063c1.102,2.266,2.535,3.668,3.625,4.688
		c0.57,0.531,1.035,0.965,1.313,1.344c0.012,0.016,0.023,0.02,0.031,0.031h-18.5c0.008-0.012,0.02-0.016,0.031-0.031
		c0.277-0.375,0.715-0.813,1.281-1.344C18.156,32.602,19.609,31.219,20.719,28.938z M13.344,37h23.313C38.012,37,39,37.945,39,39
		s-0.992,2-2.344,2H13.344C11.992,41,11,40.055,11,39S11.992,37,13.344,37z M13,42.969C13.117,42.977,13.227,43,13.344,43h23.313
		c0.117,0,0.227-0.023,0.344-0.031c1.488,1.391,2.594,3.012,2.906,4.031c0.16,0.516,0.09,0.797,0.063,0.844S39.867,48,39.281,48
		H10.719c-0.586,0-0.66-0.109-0.688-0.156S9.938,47.516,10.094,47C10.402,45.98,11.516,44.359,13,42.969z"/>
</g>
</svg>