<svg xmlns="http://www.w3.org/2000/svg" xmlns:xlink="http://www.w3.org/1999/xlink" width="50px" height="50px" viewBox="0 0 50 50" version="1.1" fill="#000000">
  <g id="surface36293">
    <path style=" stroke:none;fill-rule:nonzero;fill:#000000;fill-opacity:1;" d="M 25 0 C 22.800781 0 21 1.800781 21 4 C 21 4.746094 21.230469 5.429688 21.59375 6.03125 L 12.3125 6.03125 C 10.972656 6.03125 10.417969 6.796875 10.21875 7.25 C 9.457031 8.976562 11.011719 11.796875 12.875 13.84375 L 14.375 15.53125 C 15.707031 16.992188 17.496094 17.96875 18.8125 17.96875 L 31.1875 17.96875 C 32.507812 17.96875 34.296875 16.992188 35.625 15.53125 L 37.125 13.875 C 38.984375 11.828125 40.546875 8.976562 39.78125 7.25 C 39.582031 6.796875 39.027344 6.03125 37.6875 6.03125 L 28.40625 6.03125 C 28.769531 5.429688 29 4.746094 29 4 C 29 1.800781 27.199219 0 25 0 Z M 25 2 C 26.117188 2 27 2.882812 27 4 C 27 5.117188 26.117188 6 25 6 C 23.882812 6 23 5.117188 23 4 C 23 2.882812 23.882812 2 25 2 Z M 20.9375 20 C 20.914062 20.414062 20.886719 20.796875 20.84375 21.1875 C 20.8125 21.460938 20.757812 21.730469 20.71875 22 L 17.5 22 C 15.601562 22 14 23.300781 14 25 C 14 26.699219 15.601562 28 17.5 28 L 32.5 28 C 34.398438 28 36 26.699219 36 25 C 36 23.300781 34.398438 22 32.5 22 L 29.3125 22 C 29.25 21.703125 29.183594 21.410156 29.15625 21.15625 C 29.117188 20.773438 29.089844 20.40625 29.0625 20 Z M 16.96875 29.96875 C 16.582031 30.359375 16.210938 30.722656 15.84375 31.0625 C 14.382812 32.410156 13 33.691406 13 36 L 12.5 36 C 10.601562 36 9 37.300781 9 39 C 9 40.699219 10.601562 42 12.5 42 L 37.5 42 C 39.398438 42 41 40.699219 41 39 C 41 37.300781 39.398438 36 37.5 36 L 37 36 C 37 33.691406 35.617188 32.410156 34.15625 31.0625 C 33.789062 30.722656 33.386719 30.359375 33 29.96875 C 32.832031 29.984375 32.675781 30 32.5 30 L 17.5 30 C 17.324219 30 17.140625 29.980469 16.96875 29.96875 Z M 9.90625 43.40625 C 8.527344 45.117188 7.558594 47.0625 8.125 48.53125 C 8.335938 49.082031 8.941406 50 10.6875 50 L 39.3125 50 C 40.996094 50 41.601562 49.097656 41.8125 48.5625 C 42.386719 47.109375 41.421875 45.136719 40.0625 43.40625 C 39.292969 43.777344 38.429688 44 37.5 44 L 12.5 44 C 11.558594 44 10.679688 43.789062 9.90625 43.40625 Z M 9.90625 43.40625 "/>
  </g>
</svg>