<svg xmlns="http://www.w3.org/2000/svg" xmlns:xlink="http://www.w3.org/1999/xlink" width="50px" height="50px" viewBox="0 0 50 50" version="1.1" fill="#000000">
  <g id="surface48080">
    <path style=" stroke:none;fill-rule:nonzero;fill:#000000;fill-opacity:1;" d="M 26.734375 1.0625 C 26.65625 1.054688 26.574219 1.058594 26.488281 1.070312 C 21.480469 1.910156 20.398438 6.101562 19.988281 7.671875 C 19.980469 7.691406 19.980469 7.71875 19.96875 7.742188 C 18.539062 8.660156 16.832031 10.1875 15.640625 11.371094 C 11.890625 15.128906 10.8125 21.089844 12.890625 26.578125 C 13.039062 26.949219 13.210938 27.347656 13.410156 27.789062 C 13.921875 28.960938 14.53125 30.339844 14.820312 32 L 35.789062 32 C 34.847656 27.488281 30.980469 23.832031 28.71875 21.710938 C 29.28125 21.511719 29.78125 21.121094 30.230469 20.769531 C 30.539062 20.539062 31.050781 20.152344 31.230469 20.140625 C 31.921875 20.140625 32.121094 20.371094 32.519531 20.820312 C 32.960938 21.320312 33.609375 22.070312 34.960938 22.070312 C 36.480469 22.070312 37.28125 20.859375 37.761719 20.128906 C 37.859375 19.980469 37.949219 19.839844 38.039062 19.730469 C 38.089844 19.671875 38.308594 19.578125 38.449219 19.511719 C 38.898438 19.308594 39.570312 19.011719 39.847656 18.25 C 40.078125 17.648438 40 16.96875 39.589844 16.089844 C 39.039062 14.871094 36.910156 10.769531 32.710938 9.039062 C 32.472656 8.9375 32.398438 8.832031 32.199219 8.460938 C 31.570312 7.320312 30.761719 6.371094 27.421875 6.25 C 27.308594 5.421875 27.339844 3.738281 27.640625 2.25 C 27.699219 1.929688 27.609375 1.597656 27.378906 1.359375 C 27.207031 1.179688 26.980469 1.078125 26.734375 1.0625 Z M 12 34 C 10.339844 34 9 35.339844 9 37 C 9 38.660156 10.339844 40 12 40 L 37.671875 40 C 39.320312 40 40.671875 38.660156 40.671875 37 C 40.671875 35.339844 39.320312 34 37.671875 34 Z M 10.859375 42 C 9.078125 43.671875 7.539062 45.878906 8.132812 47.53125 C 8.320312 48.078125 8.921875 49 10.710938 49 L 39.289062 49 C 41.089844 49 41.679688 48.078125 41.871094 47.539062 C 42.460938 45.878906 40.910156 43.671875 39.128906 42 Z M 10.859375 42 "/>
  </g>
</svg>