<svg version="1.1" id="Layer_1" xmlns="http://www.w3.org/2000/svg" xmlns:xlink="http://www.w3.org/1999/xlink" x="0px" y="0px"
	 width="50px" height="50px" viewBox="0 0 50 50" enable-background="new 0 0 50 50" xml:space="preserve">
<polygon fill="#FFFFFF" points="12.417,42.25 9.25,48.334 41.167,48.334 37.584,42.25 "/>
<rect x="10.583" y="36.667" fill="#FFFFFF" width="28.583" height="4.75"/>
<polygon fill="#FFFFFF" points="20.167,28 14,35.584 36.5,35.584 29.75,28.5 "/>
<polyline fill="#FFFFFF" points="18.75,22.667 18.75,27.417 31.167,27.417 31.167,22.667 18.75,22.333 "/>
<polygon fill="#FFFFFF" points="22.417,8.75 18.333,12.75 18.833,18.5 22.417,21.417 28.834,21.417 31.917,16.417 31.417,11.75 
	28.084,8.75 "/>
<g id="surface35728">
	<path d="M25,7c-4.406,0-8,3.594-8,8c0,2.535,1.184,4.781,3.031,6.25C18.309,21.785,17,23.203,17,25
		c0,1.301,0.691,2.406,1.719,3.125c-0.961,1.875-2.176,3.004-3.281,4c-0.594,0.535-1.16,1.02-1.625,1.625
		c-0.281,0.367-0.512,0.809-0.656,1.281C10.914,35.125,9,36.805,9,39c0,1.379,0.758,2.566,1.875,3.281
		c-1.289,1.352-2.277,2.773-2.688,4.125c-0.25,0.816-0.305,1.703,0.156,2.469S9.727,50,10.719,50h28.563
		c0.992,0,1.945-0.359,2.406-1.125s0.375-1.652,0.125-2.469c-0.414-1.352-1.395-2.773-2.688-4.125C40.242,41.566,41,40.379,41,39
		c0-2.195-1.91-3.875-4.156-3.969c-0.145-0.473-0.375-0.914-0.656-1.281c-0.461-0.605-1.035-1.094-1.625-1.625
		c-1.105-1-2.316-2.121-3.281-4C32.309,27.406,33,26.301,33,25c0-1.801-1.309-3.215-3.031-3.75C31.816,19.781,33,17.535,33,15
		C33,10.594,29.406,7,25,7z M25,9c3.324,0,6,2.676,6,6s-2.676,6-6,6s-6-2.676-6-6S21.676,9,25,9z M21.5,23h7
		c1.469,0,2.5,0.977,2.5,2s-1.031,2-2.5,2h-7c-1.469,0-2.5-0.977-2.5-2S20.031,23,21.5,23z M20.531,28.906
		C20.848,28.969,21.168,29,21.5,29h7c0.324,0,0.629-0.035,0.938-0.094c1.141,2.281,2.645,3.695,3.781,4.719
		c0.594,0.535,1.082,0.965,1.375,1.344c0.012,0.016,0.02,0.02,0.031,0.031h-19.25c0.012-0.012,0.02-0.016,0.031-0.031
		c0.293-0.383,0.777-0.836,1.375-1.375C17.914,32.574,19.395,31.164,20.531,28.906z M13.344,37h23.313C38.012,37,39,37.945,39,39
		s-0.992,2-2.344,2H13.344C11.992,41,11,40.055,11,39S11.992,37,13.344,37z M13,42.969C13.117,42.977,13.227,43,13.344,43h23.313
		c0.117,0,0.227-0.023,0.344-0.031c1.488,1.391,2.594,3.012,2.906,4.031c0.16,0.516,0.09,0.797,0.063,0.844S39.867,48,39.281,48
		H10.719c-0.586,0-0.66-0.109-0.688-0.156S9.938,47.516,10.094,47C10.402,45.98,11.516,44.359,13,42.969z"/>
</g>
</svg>
